<svg width="36" height="36" viewBox="0 0 36 36" fill="none" xmlns="http://www.w3.org/2000/svg">
<path d="M8.2946 32.6602C8.08865 32.8661 8.08865 33.2 8.2946 33.4059L8.29656 33.4078C8.39929 33.5106 8.53359 33.5618 8.66795 33.5618C8.80295 33.5618 8.93809 33.5101 9.04131 33.4069C9.24726 33.2009 9.24627 32.866 9.04033 32.6601C8.83445 32.4543 8.50047 32.4543 8.2946 32.6602Z" fill="#007D35"/>
<path d="M13.5634 32.8276C13.3025 32.957 13.1958 33.2734 13.3251 33.5343L13.3271 33.5383C13.4189 33.7235 13.6043 33.83 13.7976 33.83C13.8767 33.83 13.957 33.8121 14.0328 33.7746C14.2937 33.6453 14.3994 33.3268 14.2701 33.0659C14.1408 32.805 13.8243 32.6983 13.5634 32.8276Z" fill="#007D35"/>
<path d="M21.6541 32.6602C21.4481 32.8661 21.4481 33.2 21.6541 33.4059L21.6561 33.4078C21.7588 33.5106 21.8931 33.5618 22.0274 33.5618C22.1624 33.5618 22.2976 33.5101 22.4008 33.4069C22.6067 33.2009 22.6058 32.866 22.3998 32.6601C22.1939 32.4543 21.86 32.4543 21.6541 32.6602Z" fill="#007D35"/>
<path d="M26.4536 33.83C26.5327 33.83 26.6131 33.8121 26.6888 33.7746C26.9497 33.6453 27.0554 33.3268 26.9261 33.0659C26.7967 32.805 26.4803 32.6983 26.2194 32.8276C25.9585 32.957 25.8518 33.2734 25.9811 33.5343L25.9831 33.5383C26.0749 33.7235 26.2603 33.83 26.4536 33.83Z" fill="#007D35"/>
<path d="M34.9965 22.1203L32.9721 22.3255C32.2738 22.3956 31.6328 22.7104 31.1325 23.1773V20.4268L32.6362 18.7456C33.7075 17.5499 33.6943 15.6087 32.6069 14.4186L31.2434 12.9255C31.07 12.7358 30.8429 12.6314 30.6041 12.6314C30.3653 12.6314 30.1383 12.7358 29.9646 12.9257L28.6014 14.4185C27.514 15.6087 27.5008 17.5499 28.5721 18.7455L30.0779 20.427V21.3593C29.577 20.8912 28.9352 20.575 28.2363 20.504L26.2124 20.3008C25.954 20.2742 25.6969 20.3571 25.5075 20.528C25.3176 20.6994 25.2088 20.9472 25.2088 21.208V23.2291C25.2088 24.8395 26.5077 26.2819 28.1048 26.4444L30.0779 26.6436V30.0682H25.4013C25.1101 30.0682 24.874 30.3043 24.874 30.5956C24.874 30.8868 25.1101 31.1229 25.4013 31.1229H34.6331C34.805 31.1229 34.9449 31.2619 34.9449 31.4327V34.6336C34.9449 34.8026 34.8022 34.9454 34.6331 34.9454H1.3649C1.197 34.9454 1.05518 34.8026 1.05518 34.6336V31.4327C1.05518 31.2648 1.197 31.1229 1.3649 31.1229H22.9657C23.2569 31.1229 23.493 30.8868 23.493 30.5956C23.493 30.3043 23.2569 30.0682 22.9657 30.0682H18.5263V28.4633L20.4991 28.2641C22.0961 28.104 23.3953 26.6616 23.3953 25.0487V23.0297C23.3953 22.7701 23.2872 22.5228 23.0989 22.3514C22.9103 22.1799 22.6536 22.0953 22.3923 22.1204L20.3678 22.3256C19.669 22.3957 19.0271 22.7113 18.5263 23.1793V20.427L20.032 18.7456C21.1033 17.5499 21.0902 15.6087 20.0027 14.4186L18.6392 12.9255C18.4658 12.7358 18.2388 12.6314 17.9999 12.6314C17.7611 12.6314 17.534 12.7358 17.3604 12.9257L15.9972 14.4185C14.9098 15.6087 14.8965 17.5499 15.9675 18.7452L17.4716 20.4268V21.359C16.9708 20.891 16.329 20.5748 15.6301 20.5038L13.6067 20.3006C13.349 20.2742 13.0929 20.3566 12.9038 20.5272C12.7136 20.6987 12.6046 20.9468 12.6046 21.2079V23.2289C12.6046 24.8394 13.9035 26.2817 15.5005 26.4442L17.4717 26.6434V30.0681H5.92221V28.4632L7.89286 28.264C9.48994 28.104 10.7892 26.6616 10.7892 25.0486V23.0296C10.7892 22.7693 10.6812 22.5218 10.4929 22.3504C10.305 22.1794 10.0489 22.0953 9.7882 22.1202L7.76383 22.3255C7.06493 22.3956 6.42311 22.7112 5.92221 23.1792V20.4268L7.42795 18.7454C8.49987 17.549 8.48559 15.6077 7.39694 14.4187L6.03281 12.9229C5.85858 12.7349 5.6321 12.6313 5.39493 12.6313C5.1577 12.6313 4.93122 12.7349 4.75411 12.926L3.39356 14.418C2.30414 15.6078 2.28986 17.5491 3.36171 18.7454L4.86752 20.4269V21.3592C4.36668 20.8911 3.72494 20.575 3.02604 20.5038L1.00258 20.3006C0.744887 20.2742 0.488809 20.3566 0.299668 20.5272C0.109543 20.6987 0.000488281 20.9468 0.000488281 21.2079V23.2289C0.000488281 24.8396 1.29944 26.282 2.89638 26.4442L4.86759 26.6434V27.9849V27.9862V30.068H1.3649C0.612559 30.068 0.000488281 30.6801 0.000488281 31.4325V34.6334C0.000488281 35.387 0.612559 36 1.3649 36H34.6331C35.3866 36 35.9996 35.387 35.9996 34.6335V31.4326C35.9996 30.6803 35.3866 30.0681 34.6331 30.0681H31.1325V28.4632L33.1033 28.264C34.7003 28.1038 35.9995 26.6614 35.9995 25.0486V23.0296C35.9995 22.7696 35.8917 22.5223 35.7036 22.3511C35.5155 22.1799 35.259 22.0957 34.9965 22.1203ZM30.0778 24.7981L28.7362 23.3139C28.541 23.0979 28.2075 23.0809 27.9914 23.2762C27.7753 23.4715 27.7585 23.805 27.9538 24.0211L29.2946 25.5044L28.2111 25.395C27.1553 25.2876 26.2634 24.2956 26.2634 23.229V21.3658L28.1302 21.5532C29.186 21.6607 30.0778 22.6526 30.0778 23.7193V24.7981ZM20.4737 23.3749L22.3407 23.1856V25.0487C22.3407 26.1169 21.4491 27.1088 20.3935 27.2147L19.3096 27.3242L20.6503 25.8408C20.8456 25.6247 20.8287 25.2913 20.6127 25.096C20.3966 24.9007 20.0632 24.9176 19.8679 25.1336L18.5263 26.6179V26.1666C18.5263 26.1662 18.5263 26.1657 18.5263 26.1653V25.5411C18.5264 24.4727 19.4179 23.4808 20.4737 23.3749ZM16.7534 18.0418C16.0455 17.2516 16.0558 15.9181 16.776 15.1298L18 13.7894L19.2241 15.1298C19.9442 15.918 19.9545 17.2515 19.2465 18.0418L18.5264 18.846V16.6896C18.5264 16.3983 18.2903 16.1622 17.999 16.1622C17.7078 16.1622 17.4717 16.3983 17.4717 16.6896V18.8447L16.7534 18.0418ZM15.3496 24.0211L16.6905 25.5045L15.6069 25.395C14.5512 25.2875 13.6593 24.2956 13.6593 23.2289V21.3659L15.5242 21.5532C16.5798 21.6605 17.4717 22.6524 17.4717 23.7192V24.7958L16.1321 23.3138C15.9368 23.0978 15.6033 23.0808 15.3873 23.2762C15.1712 23.4715 15.1544 23.805 15.3496 24.0211ZM7.86965 23.3749L9.73455 23.1858V25.0487C9.73455 26.1171 8.84306 27.109 7.78732 27.2147L6.70422 27.3242L8.04607 25.841C8.24147 25.625 8.2248 25.2916 8.0088 25.0962C7.7928 24.9008 7.45931 24.9175 7.26398 25.1335L5.92221 26.6166V25.5411C5.92221 24.4727 6.81377 23.4808 7.86965 23.3749ZM4.14731 18.0418C3.43905 17.2513 3.45009 15.918 4.17213 15.1295L5.39486 13.7886L6.6183 15.1303C7.33957 15.918 7.35061 17.2514 6.64228 18.0419L5.92214 18.8461V16.6896C5.92214 16.3984 5.68603 16.1623 5.39479 16.1623C5.10356 16.1623 4.86745 16.3984 4.86745 16.6896V18.8461L4.14731 18.0418ZM2.74366 24.0212L4.08551 25.5044L3.00262 25.395C1.94695 25.2877 1.05511 24.2958 1.05511 23.2289V21.3659L2.91986 21.5532C3.97561 21.6606 4.86745 22.6526 4.86745 23.7192V24.7967L3.52568 23.3136C3.33035 23.0977 2.99686 23.0809 2.78086 23.2763C2.56493 23.4718 2.54826 23.8052 2.74366 24.0212ZM30.6051 16.1622C30.3139 16.1622 30.0778 16.3983 30.0778 16.6895V18.8459L29.3576 18.0417C28.6496 17.2515 28.6599 15.918 29.3802 15.1297L30.6042 13.7893L31.8282 15.1297C32.5484 15.918 32.5587 17.2514 31.8504 18.042L31.1325 18.8446V16.6894C31.1325 16.3983 30.8964 16.1622 30.6051 16.1622ZM34.9448 25.0487C34.9448 26.1169 34.0533 27.1088 32.9976 27.2147L31.9137 27.3243L33.2545 25.8408C33.4498 25.6247 33.433 25.2913 33.2169 25.096C33.0008 24.9007 32.6673 24.9176 32.4721 25.1336L31.1325 26.6157V26.1666C31.1325 26.1661 31.1325 26.1657 31.1325 26.1652V25.5402C31.1309 24.4725 32.0215 23.4809 33.0779 23.375L34.9448 23.1857V25.0487Z" fill="#007D35"/>
<path d="M35.2071 0H0.790942C0.355074 0 0.000488281 0.354586 0.000488281 0.790453V3.08651C0.000488281 3.52343 0.355074 3.87893 0.791504 3.87893L2.89645 3.87654V4.75671C2.89645 5.82335 3.76425 6.69122 4.83089 6.69122H9.31212V7.569C9.31212 8.63564 10.1799 9.50351 11.2466 9.50351H12.1494C13.215 9.50351 14.0819 8.63571 14.0819 7.569V6.69122H21.9163V7.569C21.9163 8.63564 22.7841 9.50351 23.8507 9.50351H24.7536C25.8202 9.50351 26.688 8.63571 26.688 7.569V6.69122H31.1693C32.2348 6.69122 33.1017 5.82342 33.1017 4.75671V3.87893H35.2072C35.6441 3.87893 35.9996 3.52343 35.9996 3.08651V0.790453C35.9995 0.354586 35.644 0 35.2071 0V0ZM13.0271 7.569C13.0271 8.05409 12.6334 8.44882 12.1494 8.44882H11.2465C10.7614 8.44882 10.3667 8.05416 10.3667 7.569V6.69122H13.0271V7.569ZM25.6333 7.569C25.6333 8.05409 25.2386 8.44882 24.7535 8.44882H23.8506C23.3656 8.44882 22.9709 8.05416 22.9709 7.569V6.69122H25.6333V7.569ZM34.9448 2.82424H19.2008C18.9096 2.82424 18.6735 3.06035 18.6735 3.35159C18.6735 3.64282 18.9096 3.87893 19.2008 3.87893H32.0469V4.75671C32.0469 5.2418 31.6531 5.63653 31.1692 5.63653H26.1606H22.4435H13.5545H9.83939H4.83082C4.34573 5.63653 3.95107 5.24187 3.95107 4.75671V3.87534L16.7481 3.87893C17.0393 3.87858 17.2752 3.64226 17.2749 3.35102C17.2746 3.05993 17.0385 2.82424 16.7475 2.82424C16.7473 2.82424 1.05511 2.82396 1.05511 2.82396V1.05469H34.9448V2.82424H34.9448Z" fill="#007D35"/>
<path d="M11.6969 12.8619C11.9881 12.8619 12.2242 12.6258 12.2242 12.3346V11.1646C12.2242 10.8734 11.9881 10.6373 11.6969 10.6373C11.4057 10.6373 11.1696 10.8734 11.1696 11.1646V12.3346C11.1696 12.6258 11.4057 12.8619 11.6969 12.8619Z" fill="#007D35"/>
<path d="M11.1696 15.8504C11.1696 16.1416 11.4057 16.3778 11.6969 16.3778C11.9881 16.3778 12.2242 16.1416 12.2242 15.8504V14.6805C12.2242 14.3892 11.9881 14.1531 11.6969 14.1531C11.4057 14.1531 11.1696 14.3892 11.1696 14.6805V15.8504Z" fill="#007D35"/>
<path d="M8.69355 11.6768L9.54061 10.8736C9.75197 10.6732 9.76083 10.3395 9.56044 10.1281C9.35997 9.91682 9.02627 9.90789 8.81491 10.1083L7.96785 10.9115C7.75649 11.1118 7.74763 11.4456 7.94802 11.657C8.05174 11.7663 8.1911 11.8214 8.33081 11.8214C8.46103 11.8215 8.59153 11.7735 8.69355 11.6768Z" fill="#007D35"/>
<path d="M15.0651 11.8215C15.205 11.8215 15.3446 11.7662 15.4483 11.6565C15.6485 11.445 15.6392 11.1112 15.4277 10.911L14.5786 10.1078C14.3669 9.90766 14.0332 9.91694 13.8331 10.1285C13.6329 10.3401 13.6422 10.6739 13.8538 10.874L14.7028 11.6772C14.8048 11.7737 14.9351 11.8215 15.0651 11.8215Z" fill="#007D35"/>
<path d="M24.301 12.8619C24.5923 12.8619 24.8284 12.6258 24.8284 12.3346V11.1646C24.8284 10.8734 24.5923 10.6373 24.301 10.6373C24.0098 10.6373 23.7737 10.8734 23.7737 11.1646V12.3346C23.7737 12.6258 24.0098 12.8619 24.301 12.8619Z" fill="#007D35"/>
<path d="M23.7737 15.8504C23.7737 16.1416 24.0098 16.3778 24.301 16.3778C24.5923 16.3778 24.8284 16.1416 24.8284 15.8504V14.6805C24.8284 14.3892 24.5923 14.1531 24.301 14.1531C24.0098 14.1531 23.7737 14.3892 23.7737 14.6805V15.8504Z" fill="#007D35"/>
<path d="M21.2973 11.6772L22.1463 10.874C22.3578 10.6739 22.3671 10.3402 22.167 10.1285C21.9668 9.91694 21.633 9.90766 21.4214 10.1078L20.5724 10.911C20.3608 11.1112 20.3516 11.4449 20.5517 11.6565C20.6555 11.7662 20.795 11.8215 20.9349 11.8215C21.065 11.8215 21.1953 11.7737 21.2973 11.6772Z" fill="#007D35"/>
<path d="M27.6693 11.8215C27.8091 11.8215 27.9487 11.7662 28.0525 11.6565C28.2526 11.445 28.2434 11.1112 28.0318 10.911L27.1828 10.1078C26.9711 9.90766 26.6374 9.91694 26.4372 10.1285C26.2371 10.3401 26.2463 10.6739 26.4579 10.874L27.3069 11.6772C27.4089 11.7737 27.5392 11.8215 27.6693 11.8215Z" fill="#007D35"/>
</svg>
