<svg width="36" height="36" viewBox="0 0 36 36" fill="none" xmlns="http://www.w3.org/2000/svg">
<g clip-path="url(#clip0_69_345)">
<path d="M34.3182 4.45681L33.5667 3.86699C29.7629 0.881598 24.4499 0.881739 20.6465 3.86692L19.8949 4.45674C18.6243 5.45392 18.0041 7.06255 18.2763 8.65455C18.5269 10.1195 19.4898 11.3488 20.8522 11.9426C21.9295 12.4122 23.1273 12.4267 24.1966 12.0104L23.744 15.9628C23.6602 16.6946 23.8933 17.4296 24.3836 17.9792C24.8739 18.5288 25.5775 18.844 26.3141 18.844H27.899C28.6355 18.844 29.3392 18.5288 29.8296 17.9791C30.3199 17.4295 30.553 16.6945 30.4691 15.9628L30.4002 15.3612C30.367 15.0712 30.1048 14.8633 29.8149 14.8962C29.5249 14.9294 29.3167 15.1914 29.3499 15.4815L29.4188 16.0831C29.4684 16.5158 29.3305 16.9504 29.0406 17.2755C28.7507 17.6004 28.3345 17.7869 27.899 17.7869H26.3141C25.8786 17.7869 25.4625 17.6005 25.1726 17.2755C24.8827 16.9505 24.7447 16.5159 24.7943 16.0831L25.3606 11.1369C25.4641 10.2333 24.981 9.36523 24.1586 8.97698L24.0406 8.92123C23.7766 8.79642 23.4615 8.90946 23.337 9.1734C23.2122 9.43733 23.3252 9.75243 23.5891 9.87704L23.7072 9.93285C24.0481 10.0938 24.2723 10.4191 24.3108 10.7829C23.3883 11.3311 22.2647 11.4049 21.2746 10.9734C20.2399 10.5225 19.5085 9.58886 19.3183 8.47631C19.1115 7.26714 19.5826 6.04557 20.5475 5.2883L21.2991 4.69841C24.7184 2.01472 29.4947 2.01486 32.914 4.69841L33.6655 5.2883C34.6304 6.04557 35.1015 7.26714 34.8948 8.47631C34.7046 9.58886 33.9732 10.5224 32.9385 10.9734C31.9486 11.4048 30.8249 11.331 29.9022 10.7829C29.9408 10.419 30.165 10.0937 30.5059 9.93271L30.6239 9.87697C30.8878 9.75229 31.0008 9.43726 30.8761 9.17333C30.7514 8.90932 30.4364 8.79628 30.1724 8.92116L30.0544 8.97684C29.232 9.36523 28.749 10.2332 28.8524 11.1369L29.0932 13.24C29.1241 13.5095 29.3527 13.7084 29.6176 13.7084C29.6377 13.7084 29.658 13.7072 29.6785 13.7049C29.9685 13.6717 30.1767 13.4097 30.1435 13.1196L30.0165 12.0112C30.525 12.2093 31.0625 12.3102 31.6027 12.3101C32.1979 12.3101 32.7961 12.1885 33.3608 11.9424C34.7232 11.3485 35.6862 10.1193 35.9367 8.65434C36.209 7.06241 35.5888 5.45392 34.3182 4.45681Z" fill="#007D35"/>
<path d="M30.3243 6.56871C30.6055 6.49034 30.7698 6.19878 30.6914 5.91757C30.613 5.63644 30.3214 5.47188 30.0402 5.55053C28.9305 5.86014 28.0765 6.74906 27.8114 7.87027L27.7162 8.27298C27.649 8.55707 27.8249 8.8418 28.109 8.90896C28.1498 8.91861 28.1908 8.92327 28.231 8.92327C28.4704 8.92327 28.6875 8.75934 28.7449 8.51619L28.8402 8.11349C29.0167 7.36686 29.5854 6.77492 30.3243 6.56871Z" fill="#007D35"/>
<path d="M24.33 5.55052C24.0488 5.47173 23.7573 5.63643 23.6789 5.91756C23.6004 6.19869 23.7647 6.49026 24.0459 6.5687C24.7848 6.77491 25.3536 7.36678 25.53 8.11348L25.6252 8.51618C25.6827 8.7594 25.8997 8.92325 26.1392 8.92325C26.1794 8.92325 26.2203 8.9186 26.2612 8.90895C26.5452 8.84178 26.7212 8.55706 26.654 8.27297L26.5588 7.87026C26.2937 6.74905 25.4397 5.8602 24.33 5.55052Z" fill="#007D35"/>
<path d="M23.2681 18.763C22.361 19.0481 21.3865 18.9317 20.5706 18.4469C20.609 18.0828 20.8333 17.7572 21.1743 17.5962L21.2924 17.5404C21.5563 17.4157 21.6693 17.1007 21.5445 16.8368C21.4199 16.5728 21.1049 16.4597 20.8409 16.5846L20.7229 16.6403C19.9005 17.0287 19.4175 17.8967 19.5209 18.8003L20.0872 23.7465C20.1368 24.1793 19.9988 24.6139 19.709 24.9388C19.419 25.2639 19.0029 25.4503 18.5674 25.4503H16.9825C16.547 25.4503 16.1309 25.2639 15.8409 24.9388C15.5511 24.6139 15.4131 24.1793 15.4627 23.7465L16.029 18.8003C16.1325 17.8967 15.6494 17.0286 14.827 16.6404L14.709 16.5846C14.445 16.4598 14.13 16.5728 14.0054 16.8368C13.8806 17.1007 13.9936 17.4158 14.2575 17.5404L14.3756 17.5962C14.7165 17.7572 14.9406 18.0825 14.9792 18.4463C14.0567 18.9945 12.9329 19.0684 11.943 18.6369C10.9082 18.1859 10.1768 17.2524 9.98663 16.1398C9.77992 14.9306 10.251 13.709 11.216 12.9517L11.9675 12.3619C13.4195 11.2222 15.1584 10.5395 16.9965 10.3873C17.2875 10.3632 17.5038 10.1078 17.4796 9.81687C17.4555 9.52594 17.2002 9.30958 16.9092 9.33375C14.8644 9.50304 12.9299 10.2626 11.3146 11.5303L10.5632 12.1201C9.29258 13.1172 8.67231 14.7258 8.94449 16.3179C9.19504 17.7829 10.158 19.0121 11.5205 19.6059C12.0853 19.8521 12.6833 19.9737 13.2785 19.9737C13.8187 19.9737 14.3562 19.8726 14.8647 19.6746L14.4122 23.6262C14.3285 24.3581 14.5616 25.093 15.0519 25.6426C15.5422 26.1921 16.2457 26.5074 16.9824 26.5074H18.5672C19.3038 26.5074 20.0074 26.1921 20.4977 25.6426C20.9881 25.093 21.2212 24.358 21.1374 23.6262L20.6849 19.6749C21.192 19.8727 21.7286 19.9742 22.2692 19.9742C22.7099 19.9742 23.1532 19.9073 23.585 19.7716C23.8634 19.6841 24.0182 19.3873 23.9307 19.1089C23.8434 18.8304 23.5469 18.6758 23.2681 18.763Z" fill="#007D35"/>
<path d="M18.8995 16.5865C19.1389 16.5865 19.356 16.4226 19.4134 16.1795L19.5086 15.7768C19.6851 15.0301 20.2538 14.4383 20.9928 14.232C21.2739 14.1535 21.4383 13.862 21.3598 13.5808C21.2814 13.2997 20.9898 13.1353 20.7086 13.2138C19.5989 13.5236 18.7449 14.4124 18.4799 15.5336L18.3847 15.9363C18.3175 16.2204 18.4933 16.5051 18.7774 16.5722C18.8183 16.5819 18.8592 16.5865 18.8995 16.5865Z" fill="#007D35"/>
<path d="M14.9984 13.2138C14.7172 13.1351 14.4256 13.2997 14.3472 13.5808C14.2687 13.862 14.4331 14.1535 14.7142 14.232C15.4532 14.4383 16.022 15.0301 16.1984 15.7768L16.2937 16.1795C16.3511 16.4227 16.5682 16.5865 16.8076 16.5865C16.8478 16.5865 16.8888 16.5819 16.9296 16.5722C17.2137 16.5051 17.3896 16.2203 17.3224 15.9362L17.2272 15.5336C16.9622 14.4123 16.1082 13.5235 14.9984 13.2138Z" fill="#007D35"/>
<path d="M14.2435 26.6696C13.3677 26.9031 12.4665 26.7753 11.6892 26.3119C11.7275 25.9478 11.9517 25.622 12.2929 25.4608L12.411 25.4051C12.6749 25.2804 12.7879 24.9654 12.6631 24.7015C12.5384 24.4375 12.2236 24.3244 11.9595 24.4493L11.8415 24.505C11.019 24.8934 10.5361 25.7614 10.6394 26.665L11.2058 31.6112C11.2553 32.0439 11.1175 32.4785 10.8276 32.8035C10.5377 33.1285 10.1215 33.315 9.68597 33.315H8.10109C7.66554 33.315 7.24945 33.1286 6.95951 32.8035C6.66964 32.4786 6.53172 32.0439 6.58126 31.6112L7.14761 26.665C7.25114 25.7614 6.76809 24.8933 5.94563 24.505L5.82758 24.4493C5.56358 24.3245 5.24848 24.4375 5.12394 24.7015C4.9992 24.9654 5.11217 25.2805 5.37611 25.4051L5.49423 25.4609C5.83555 25.6221 6.0598 25.948 6.09793 26.3123C4.89856 27.0251 3.385 26.919 2.28697 26.0319C2.05983 25.8483 1.72704 25.8836 1.54366 26.1107C1.36014 26.3378 1.39544 26.6705 1.62252 26.854C2.43131 27.5076 3.41185 27.8388 4.39564 27.8388C4.9333 27.8388 5.47153 27.7389 5.98341 27.5395L5.53095 31.4909C5.44722 32.2227 5.68029 32.9577 6.17059 33.5072C6.6609 34.0568 7.36447 34.3721 8.10109 34.3721H9.68597C10.4225 34.3721 11.1262 34.0568 11.6165 33.5072C12.1068 32.9576 12.34 32.2226 12.2561 31.4909L11.8039 27.542C12.3081 27.7403 12.8387 27.842 13.3766 27.842C13.7552 27.842 14.1373 27.7921 14.5157 27.6912C14.7979 27.616 14.9655 27.3263 14.8903 27.0443C14.8151 26.7621 14.5251 26.5946 14.2435 26.6696Z" fill="#007D35"/>
<path d="M1.10524 24.0044C0.898463 22.7953 1.36953 21.5737 2.33443 20.8164L3.08606 20.2265C4.44189 19.1623 6.06222 18.4917 7.77178 18.2869C8.06165 18.2522 8.2685 17.989 8.23382 17.6992C8.19908 17.4093 7.93578 17.2025 7.64612 17.2372C5.74416 17.465 3.94165 18.211 2.43338 19.3948L1.68181 19.9847C0.411187 20.9819 -0.209079 22.5905 0.0631723 24.1824C0.0930544 24.3572 0.134213 24.5336 0.18552 24.7067C0.253741 24.9364 0.464114 25.085 0.692107 25.085C0.741863 25.085 0.792536 25.0779 0.842715 25.063C1.12265 24.98 1.28207 24.6857 1.19912 24.4059C1.15965 24.2731 1.12808 24.138 1.10524 24.0044Z" fill="#007D35"/>
<path d="M10.018 24.4513C10.2574 24.4513 10.4745 24.2874 10.5319 24.0442L10.6272 23.6416C10.8036 22.8949 11.3723 22.303 12.1113 22.0968C12.3925 22.0184 12.5568 21.7268 12.4784 21.4456C12.4 21.1645 12.1084 21 11.8272 21.0786C10.7175 21.3882 9.86347 22.2771 9.59841 23.3984L9.50319 23.801C9.43603 24.0851 9.61187 24.3698 9.89596 24.437C9.93677 24.4466 9.97764 24.4513 10.018 24.4513Z" fill="#007D35"/>
<path d="M6.11688 21.0785C5.8356 20.9999 5.54411 21.1645 5.46574 21.4456C5.3873 21.7268 5.55165 22.0184 5.83278 22.0967C6.57166 22.3029 7.14041 22.8948 7.31688 23.6416L7.41209 24.0442C7.46953 24.2874 7.6866 24.4513 7.92601 24.4513C7.96632 24.4513 8.0072 24.4466 8.04808 24.437C8.33217 24.3698 8.50801 24.0851 8.44084 23.801L8.34563 23.3984C8.08057 22.2771 7.2266 21.3882 6.11688 21.0785Z" fill="#007D35"/>
</g>
<defs>
<clipPath id="clip0_69_345">
<rect width="36" height="36" fill="white"/>
</clipPath>
</defs>
</svg>
