<svg width="36" height="36" viewBox="0 0 36 36" fill="none" xmlns="http://www.w3.org/2000/svg">
<g clip-path="url(#clip0_69_167)">
<path d="M28.0862 15.3647C27.9898 15.3647 27.8918 15.3669 27.7928 15.3705C26.8402 14.3886 25.6534 13.6771 24.3599 13.2932C24.6567 10.1903 23.2843 7.22154 21.9257 5.11484C21.7616 4.86045 21.42 4.79196 21.17 4.96268C20.9289 5.12729 20.8632 5.45353 21.0215 5.699C22.2626 7.62282 23.5166 10.3019 23.3008 13.0568C22.9096 12.9971 22.5124 12.9661 22.1121 12.9661C20.9147 12.9661 19.7788 13.2339 18.7604 13.712V12.7482L21.3483 10.1603C21.5567 9.95192 21.5778 9.60964 21.3758 9.39511C21.1668 9.17307 20.8172 9.16906 20.603 9.38323L18.7603 11.2258V8.34211C18.7603 8.04736 18.5333 7.79037 18.2387 7.78158C17.9339 7.77237 17.6839 8.01685 17.6839 8.31961V11.2258L15.8413 9.38323C15.6312 9.17299 15.2904 9.17299 15.0802 9.38323C14.87 9.59346 14.87 9.93427 15.0802 10.1444L17.6839 12.7481V14.3239C16.7223 14.9756 15.9113 15.8333 15.314 16.8328C15.2319 14.6039 14.5465 12.6968 13.2596 11.1358C13.2465 11.12 13.2329 11.1045 13.2197 11.0888C13.8385 6.98157 17.1176 3.33396 18.2232 2.20482C18.5102 2.49697 18.9429 2.9573 19.4352 3.54835C19.6222 3.77286 19.9547 3.80661 20.1833 3.62478L20.1835 3.62464C20.4204 3.43634 20.4547 3.09026 20.2611 2.85767C19.3362 1.74638 18.6204 1.08467 18.5869 1.0538C18.381 0.864309 18.064 0.864309 17.8581 1.0538C17.6652 1.2312 13.4103 5.1938 12.3024 10.1427C10.6202 8.63567 8.24258 7.55524 5.33614 6.99042C2.71623 6.48115 0.61037 6.56222 0.522058 6.56588C0.242425 6.57755 0.0184797 6.80157 0.00680781 7.08113C0.00315156 7.16944 -0.0777781 9.2753 0.431284 11.8951C1.11339 15.4053 2.54692 18.1451 4.5767 19.8186C4.82082 20.0198 5.07437 20.2046 5.33537 20.3764C1.97387 23.1596 0.129152 27.2157 0.0478 27.3971C-0.0666687 27.6525 0.0335969 27.953 0.278425 28.0883C0.489362 28.205 4.78335 30.546 9.37749 30.5457C10.0328 30.5457 10.6945 30.4969 11.3512 30.3885C12.5857 33.155 15.3624 35.0883 18.5823 35.0883C21.6407 35.0883 24.2992 33.3442 25.6162 30.7985C26.4101 31.0597 27.2386 31.1923 28.0863 31.1923C29.48 31.1923 30.8307 30.8313 32.0262 30.1433C32.2951 29.9885 32.3727 29.6353 32.199 29.3781C32.0398 29.1425 31.7267 29.0742 31.4799 29.2156C30.4499 29.806 29.2867 30.1158 28.0863 30.1158C27.3868 30.1158 26.7031 30.0101 26.0463 29.8045C26.3372 28.9812 26.4962 28.0961 26.4962 27.1745C26.4962 24.0543 24.6809 21.3504 22.0512 20.0626C23.1554 17.9866 25.2396 16.6208 27.6078 16.4575C27.7696 16.4467 27.9306 16.4411 28.0863 16.4411C31.8564 16.4411 34.9236 19.5084 34.9236 23.2784C34.9236 24.8143 34.4113 26.2918 33.472 27.4911C33.2972 27.7142 33.3212 28.0333 33.531 28.224L33.5311 28.2242C33.7638 28.4357 34.1257 28.4021 34.3196 28.1546C35.407 26.7664 36.0001 25.056 36.0001 23.2784C36 18.9149 32.4498 15.3647 28.0862 15.3647ZM5.26421 18.9903C2.95065 17.0847 1.93639 13.9822 1.493 11.715C1.14812 9.95171 1.08498 8.40364 1.07809 7.63688C1.84007 7.64349 3.37379 7.70571 5.13076 8.04708C9.25178 8.84794 11.3742 10.5411 12.429 11.8205C14.0764 13.8189 14.605 16.5011 14.0057 19.8035L12.3601 18.1579V13.3763C12.3601 13.079 12.1191 12.838 11.8218 12.838C11.5246 12.838 11.2836 13.079 11.2836 13.3763V17.0814L8.91428 14.7121V11.0297C8.91428 10.7325 8.67332 10.4915 8.37603 10.4915C8.07875 10.4915 7.83779 10.7325 7.83779 11.0297V13.6356L5.78277 11.5806C5.57253 11.3703 5.23173 11.3703 5.02164 11.5806C4.8114 11.7908 4.8114 12.1316 5.02164 12.3417L7.07666 14.3967H4.47088C4.1736 14.3967 3.93264 14.6377 3.93264 14.935C3.93264 15.2322 4.1736 15.4732 4.47088 15.4732H8.15314L10.5225 17.8425H6.81714C6.51985 17.8425 6.27889 18.0835 6.27889 18.3808C6.27889 18.678 6.51985 18.919 6.81714 18.919H11.5988L13.2444 20.5646C9.94344 21.1638 7.26221 20.6359 5.26421 18.9903ZM9.27744 24.1339L6.04096 22.517C5.77496 22.3841 5.45174 22.492 5.31885 22.7579C5.18603 23.0238 5.29389 23.3471 5.55974 23.48L7.83322 24.6157L4.11482 25.8567C3.83286 25.9508 3.68056 26.2556 3.77464 26.5376C3.84988 26.7631 4.05983 26.9056 4.28511 26.9056C4.34157 26.9056 4.39902 26.8966 4.45555 26.8777L8.26044 25.608L7.0671 27.9966C6.93428 28.2626 7.04214 28.5858 7.30799 28.7187C7.38526 28.7573 7.46731 28.7756 7.5481 28.7756C7.74561 28.7756 7.93581 28.6664 8.03003 28.4778L9.70445 25.1261L11.0752 24.6687C10.8115 25.4565 10.6684 26.2991 10.6684 27.1745C10.6684 27.9317 10.7754 28.6642 10.9749 29.3581C6.96303 29.9342 2.64289 28.0533 1.25542 27.3782C1.85546 26.2068 3.63254 23.0552 6.34309 20.9477C7.63515 21.5692 9.10018 21.8822 10.7314 21.8822C11.4105 21.8822 12.1192 21.8266 12.855 21.7185C12.3925 22.2038 11.9913 22.7479 11.6629 23.3378L9.27744 24.1339ZM25.4196 27.1745C25.4196 30.9446 22.3524 34.0118 18.5823 34.0118C14.8122 34.0118 11.745 30.9446 11.745 27.1745C11.745 23.4045 14.8122 20.3372 18.5823 20.3372C22.3524 20.3372 25.4196 23.4045 25.4196 27.1745ZM21.0494 19.655C20.2727 19.3995 19.4434 19.2607 18.5823 19.2607C17.4266 19.2607 16.328 19.5098 15.3372 19.957C15.7891 16.6218 18.6548 14.0424 22.112 14.0424C23.6748 14.0424 25.1856 14.5814 26.3907 15.547C24.0949 16.0458 22.1365 17.5405 21.0494 19.655Z" fill="#007D35"/>
<path d="M20.6396 24.9906C19.2643 24.9906 18.1454 26.1095 18.1454 27.4848C18.1454 28.8601 19.2643 29.979 20.6396 29.979C22.0149 29.979 23.1339 28.8601 23.1339 27.4848C23.1339 26.1095 22.015 24.9906 20.6396 24.9906ZM20.6396 28.9024C19.8578 28.9024 19.2219 28.2665 19.2219 27.4848C19.2219 26.7031 19.8578 26.0672 20.6396 26.0672C21.4213 26.0672 22.0574 26.7031 22.0574 27.4848C22.0574 28.2664 21.4214 28.9024 20.6396 28.9024Z" fill="#007D35"/>
<path d="M27.9431 17.4837C26.3301 17.4837 25.1138 18.218 25.1138 19.1918C25.1138 20.1656 26.3301 20.8999 27.9431 20.8999C29.5562 20.8999 30.7725 20.1656 30.7725 19.1918C30.7725 18.218 29.5561 17.4837 27.9431 17.4837ZM29.3184 19.5396C28.9651 19.72 28.4639 19.8234 27.9431 19.8234C27.4222 19.8234 26.921 19.72 26.5678 19.5396C26.2908 19.3982 26.1902 19.2541 26.1902 19.1918C26.1902 19.1295 26.2907 18.9854 26.5678 18.844C26.921 18.6636 27.4222 18.5602 27.9431 18.5602C28.4639 18.5602 28.9651 18.6636 29.3184 18.844C29.5954 18.9854 29.696 19.1295 29.696 19.1918C29.696 19.2542 29.5954 19.3982 29.3184 19.5396Z" fill="#007D35"/>
</g>
<defs>
<clipPath id="clip0_69_167">
<rect width="36" height="36" fill="white"/>
</clipPath>
</defs>
</svg>
