<svg width="36" height="36" viewBox="0 0 36 36" fill="none" xmlns="http://www.w3.org/2000/svg">
<path d="M33.1875 14.0625H23.0625C22.6154 14.0638 22.1869 14.2421 21.8707 14.5582C21.5546 14.8744 21.3763 15.3029 21.375 15.75V23.0625H20.25C19.5591 23.0649 18.8937 23.3235 18.3825 23.7881C18.1857 23.2474 17.8278 22.7801 17.3571 22.4491C16.8863 22.1182 16.3254 21.9396 15.75 21.9375H14.625C14.4758 21.9375 14.3327 21.9968 14.2273 22.1023C14.1218 22.2077 14.0625 22.3508 14.0625 22.5C14.0625 23.2459 14.3588 23.9613 14.8863 24.4887C15.4137 25.0162 16.1291 25.3125 16.875 25.3125H17.4375V25.8919C16.9543 25.5179 16.361 25.3142 15.75 25.3125H14.625C14.4758 25.3125 14.3327 25.3718 14.2273 25.4773C14.1218 25.5827 14.0625 25.7258 14.0625 25.875C14.0625 26.6209 14.3588 27.3363 14.8863 27.8637C15.4137 28.3912 16.1291 28.6875 16.875 28.6875H17.4375V29.3062C16.8973 29.4172 16.4015 29.6841 16.0116 30.0741C15.6216 30.464 15.3547 30.9598 15.2438 31.5H10.0687C9.95784 30.9598 9.69087 30.464 9.30093 30.0741C8.91098 29.6841 8.4152 29.4172 7.875 29.3062V28.6875H8.4375C9.33261 28.6875 10.1911 28.3319 10.824 27.699C11.4569 27.0661 11.8125 26.2076 11.8125 25.3125C11.8125 25.1633 11.7532 25.0202 11.6477 24.9148C11.5423 24.8093 11.3992 24.75 11.25 24.75H10.125C9.65398 24.7508 9.18836 24.8503 8.75818 25.0421C8.328 25.234 7.94282 25.5139 7.6275 25.8637C7.40779 25.3663 7.04856 24.9432 6.59332 24.6456C6.13807 24.3481 5.60634 24.189 5.0625 24.1875H3.9375C3.78832 24.1875 3.64524 24.2468 3.53975 24.3523C3.43426 24.4577 3.375 24.6008 3.375 24.75C3.375 25.4959 3.67132 26.2113 4.19876 26.7387C4.72621 27.2662 5.44158 27.5625 6.1875 27.5625H6.75V29.3062C6.2098 29.4172 5.71402 29.6841 5.32407 30.0741C4.93413 30.464 4.66716 30.9598 4.55625 31.5H1.125V32.625H33.1875C33.6346 32.6237 34.0631 32.4454 34.3793 32.1293C34.6954 31.8131 34.8737 31.3846 34.875 30.9375V15.75C34.8737 15.3029 34.6954 14.8744 34.3793 14.5582C34.0631 14.2421 33.6346 14.0638 33.1875 14.0625ZM16.875 24.1875C16.5262 24.1865 16.1861 24.078 15.9012 23.8767C15.6163 23.6753 15.4005 23.391 15.2831 23.0625H15.75C16.0988 23.0635 16.4389 23.172 16.7238 23.3733C17.0087 23.5747 17.2245 23.859 17.3419 24.1875H16.875ZM16.875 27.5625C16.5262 27.5615 16.1861 27.453 15.9012 27.2517C15.6163 27.0503 15.4005 26.766 15.2831 26.4375H15.75C16.0988 26.4385 16.4389 26.547 16.7238 26.7483C17.0087 26.9497 17.2245 27.234 17.3419 27.5625H16.875ZM10.125 25.875H10.6144C10.4897 26.3577 10.2083 26.7853 9.81432 27.0908C9.42032 27.3962 8.93603 27.5621 8.4375 27.5625H7.94812C8.07276 27.0798 8.35417 26.6522 8.74818 26.3467C9.14218 26.0413 9.62647 25.8754 10.125 25.875ZM6.1875 26.4375C5.83865 26.4365 5.4986 26.328 5.21371 26.1267C4.92883 25.9253 4.71299 25.641 4.59562 25.3125H5.0625C5.41135 25.3135 5.7514 25.422 6.03629 25.6233C6.32117 25.8247 6.53701 26.109 6.65438 26.4375H6.1875ZM5.72625 31.5C5.84143 31.1712 6.05594 30.8863 6.34012 30.6847C6.6243 30.4832 6.9641 30.3749 7.3125 30.3749C7.6609 30.3749 8.0007 30.4832 8.28488 30.6847C8.56906 30.8863 8.78357 31.1712 8.89875 31.5H5.72625ZM20.25 24.1875H20.7169C20.5995 24.516 20.3837 24.8003 20.0988 25.0017C19.8139 25.203 19.4738 25.3115 19.125 25.3125H18.6581C18.7755 24.984 18.9913 24.6997 19.2762 24.4983C19.5611 24.297 19.9012 24.1885 20.25 24.1875ZM16.4137 31.5C16.5289 31.1712 16.7434 30.8863 17.0276 30.6847C17.3118 30.4832 17.6516 30.3749 18 30.3749C18.3484 30.3749 18.6882 30.4832 18.9724 30.6847C19.2566 30.8863 19.4711 31.1712 19.5863 31.5H16.4137ZM20.7563 31.5C20.6453 30.9598 20.3784 30.464 19.9884 30.0741C19.5985 29.6841 19.1027 29.4172 18.5625 29.3062V26.4375H19.125C19.5631 26.4358 19.9947 26.3317 20.3854 26.1334C20.7761 25.9351 21.115 25.6482 21.375 25.2956V30.9375C21.3765 31.1294 21.4108 31.3196 21.4762 31.5H20.7563ZM33.75 30.9375C33.75 31.0867 33.6907 31.2298 33.5852 31.3352C33.4798 31.4407 33.3367 31.5 33.1875 31.5H23.0625C22.9133 31.5 22.7702 31.4407 22.6648 31.3352C22.5593 31.2298 22.5 31.0867 22.5 30.9375V15.75C22.5 15.6008 22.5593 15.4577 22.6648 15.3523C22.7702 15.2468 22.9133 15.1875 23.0625 15.1875H33.1875C33.3367 15.1875 33.4798 15.2468 33.5852 15.3523C33.6907 15.4577 33.75 15.6008 33.75 15.75V30.9375Z" fill="#007D35"/>
<path d="M32.625 15.75H23.625C23.4758 15.75 23.3327 15.8093 23.2273 15.9148C23.1218 16.0202 23.0625 16.1633 23.0625 16.3125V28.6875C23.0625 28.8367 23.1218 28.9798 23.2273 29.0852C23.3327 29.1907 23.4758 29.25 23.625 29.25H32.625C32.7742 29.25 32.9173 29.1907 33.0227 29.0852C33.1282 28.9798 33.1875 28.8367 33.1875 28.6875V16.3125C33.1875 16.1633 33.1282 16.0202 33.0227 15.9148C32.9173 15.8093 32.7742 15.75 32.625 15.75ZM32.0625 28.125H24.1875V16.875H32.0625V28.125Z" fill="#007D35"/>
<path d="M28.125 23.625C28.7217 23.625 29.294 23.388 29.716 22.966C30.1379 22.544 30.375 21.9717 30.375 21.375C30.375 20.2832 28.8495 18.5276 28.5435 18.1868C28.4894 18.1303 28.4244 18.0854 28.3525 18.0548C28.2806 18.0241 28.2032 18.0083 28.125 18.0083C28.0468 18.0083 27.9694 18.0241 27.8975 18.0548C27.8256 18.0854 27.7606 18.1303 27.7065 18.1868C27.4005 18.5276 25.875 20.2832 25.875 21.375C25.875 21.9717 26.1121 22.544 26.534 22.966C26.956 23.388 27.5283 23.625 28.125 23.625ZM28.125 19.4338C28.7224 20.1831 29.25 21.0263 29.25 21.375C29.25 21.6734 29.1315 21.9595 28.9205 22.1705C28.7095 22.3815 28.4234 22.5 28.125 22.5C27.8266 22.5 27.5405 22.3815 27.3295 22.1705C27.1185 21.9595 27 21.6734 27 21.375C27 21.0167 27.5282 20.1797 28.125 19.4338Z" fill="#007D35"/>
<path d="M25.3125 24.75H26.4375V25.875H25.3125V24.75Z" fill="#007D35"/>
<path d="M27.5625 24.75H30.9375V25.875H27.5625V24.75Z" fill="#007D35"/>
<path d="M25.3125 26.4375H30.9375V27.5625H25.3125V26.4375Z" fill="#007D35"/>
<path d="M1.125 33.75H34.875V34.875H1.125V33.75Z" fill="#007D35"/>
<path d="M27.5625 29.8125H28.6875V30.9375H27.5625V29.8125Z" fill="#007D35"/>
<path d="M1.125 1.125V2.25H3.9375V5.625C3.9375 5.77418 3.99676 5.91726 4.10225 6.02275C4.20774 6.12824 4.35082 6.1875 4.5 6.1875H5.0625V7.3125C5.0625 7.46168 5.12176 7.60476 5.22725 7.71025C5.33274 7.81574 5.47582 7.875 5.625 7.875H7.875C8.02418 7.875 8.16726 7.81574 8.27275 7.71025C8.37824 7.60476 8.4375 7.46168 8.4375 7.3125V6.1875H9C9.14918 6.1875 9.29226 6.12824 9.39775 6.02275C9.50324 5.91726 9.5625 5.77418 9.5625 5.625V2.25H15.1875V5.625C15.1875 5.77418 15.2468 5.91726 15.3523 6.02275C15.4577 6.12824 15.6008 6.1875 15.75 6.1875H16.3125V7.3125C16.3125 7.46168 16.3718 7.60476 16.4773 7.71025C16.5827 7.81574 16.7258 7.875 16.875 7.875H19.125C19.2742 7.875 19.4173 7.81574 19.5227 7.71025C19.6282 7.60476 19.6875 7.46168 19.6875 7.3125V6.1875H20.25C20.3992 6.1875 20.5423 6.12824 20.6477 6.02275C20.7532 5.91726 20.8125 5.77418 20.8125 5.625V2.25H27.5625V5.625C27.5625 5.77418 27.6218 5.91726 27.7273 6.02275C27.8327 6.12824 27.9758 6.1875 28.125 6.1875H28.6875V7.3125C28.6875 7.46168 28.7468 7.60476 28.8523 7.71025C28.9577 7.81574 29.1008 7.875 29.25 7.875H31.5C31.6492 7.875 31.7923 7.81574 31.8977 7.71025C32.0032 7.60476 32.0625 7.46168 32.0625 7.3125V6.1875H32.625C32.7742 6.1875 32.9173 6.12824 33.0227 6.02275C33.1282 5.91726 33.1875 5.77418 33.1875 5.625V2.25H34.875V1.125H1.125ZM7.3125 6.75H6.1875V6.1875H7.3125V6.75ZM8.4375 5.0625H5.0625V2.25H8.4375V5.0625ZM18.5625 6.75H17.4375V6.1875H18.5625V6.75ZM19.6875 5.0625H16.3125V2.25H19.6875V5.0625ZM30.9375 6.75H29.8125V6.1875H30.9375V6.75ZM32.0625 5.0625H28.6875V2.25H32.0625V5.0625Z" fill="#007D35"/>
<path d="M17.4375 11.25H18.5625V13.5H17.4375V11.25Z" fill="#007D35"/>
<path d="M17.4375 15.1875H18.5625V16.3125H17.4375V15.1875Z" fill="#007D35"/>
<path d="M17.4375 17.4375H18.5625V18.5625H17.4375V17.4375Z" fill="#007D35"/>
<path d="M19.1519 11.1134L20.1712 10.6375L21.1231 12.6762L20.1037 13.1521L19.1519 11.1134Z" fill="#007D35"/>
<path d="M14.8749 12.6871L15.8267 10.6483L16.8461 11.1243L15.8942 13.163L14.8749 12.6871Z" fill="#007D35"/>
<path d="M13.6753 15.2314L14.15 14.2122L15.1693 14.6869L14.6945 15.7062L13.6753 15.2314Z" fill="#007D35"/>
<path d="M12.7343 17.2756L13.2102 16.2563L14.2296 16.7322L13.7536 17.7516L12.7343 17.2756Z" fill="#007D35"/>
<path d="M6.1875 11.25H7.3125V13.5H6.1875V11.25Z" fill="#007D35"/>
<path d="M6.1875 15.1875H7.3125V16.3125H6.1875V15.1875Z" fill="#007D35"/>
<path d="M6.1875 17.4375H7.3125V18.5625H6.1875V17.4375Z" fill="#007D35"/>
<path d="M7.90588 11.1129L8.92525 10.6369L9.87711 12.6757L8.85774 13.1516L7.90588 11.1129Z" fill="#007D35"/>
<path d="M9.57166 14.6775L10.591 14.2016L11.067 15.2209L10.0476 15.6969L9.57166 14.6775Z" fill="#007D35"/>
<path d="M10.5222 16.7178L11.5416 16.2419L12.0175 17.2613L10.9981 17.7372L10.5222 16.7178Z" fill="#007D35"/>
<path d="M3.62317 12.6848L4.57503 10.6461L5.5944 11.122L4.64254 13.1607L3.62317 12.6848Z" fill="#007D35"/>
<path d="M2.42981 15.2269L2.90456 14.2077L3.92381 14.6824L3.44906 15.7017L2.42981 15.2269Z" fill="#007D35"/>
<path d="M1.48254 17.2734L1.95848 16.254L2.97785 16.7299L2.50191 17.7493L1.48254 17.2734Z" fill="#007D35"/>
<path d="M29.8125 11.25H30.9375V13.5H29.8125V11.25Z" fill="#007D35"/>
<path d="M31.5247 11.1117L32.544 10.6358L33.4959 12.6745L32.4765 13.1504L31.5247 11.1117Z" fill="#007D35"/>
<path d="M27.2566 12.6949L28.2084 10.6562L29.2278 11.1321L28.276 13.1709L27.2566 12.6949Z" fill="#007D35"/>
</svg>
