<svg width="36" height="36" viewBox="0 0 36 36"  xmlns="http://www.w3.org/2000/svg">
<g clip-path="url(#clip0_69_108)">
<path d="M13.5462 32.0339C13.3402 32.2399 13.3402 32.5738 13.5462 32.7797L13.5482 32.7817C13.6509 32.8844 13.7852 32.9356 13.9195 32.9356C14.0545 32.9356 14.1897 32.8838 14.2929 32.7806C14.4988 32.5747 14.4979 32.2398 14.2919 32.0338C14.086 31.828 13.7521 31.828 13.5462 32.0339Z" fill="#007D35"/>
<path d="M26.9222 33.1977C27.003 33.1977 27.0852 33.1791 27.1623 33.1398C27.4219 33.0078 27.5243 32.6883 27.3923 32.4288C27.2602 32.1692 26.9426 32.0656 26.6832 32.1978C26.4236 32.3298 26.3201 32.6474 26.4522 32.9069L26.4542 32.911C26.547 33.0934 26.7309 33.1977 26.9222 33.1977Z" fill="#007D35"/>
<path d="M21.7526 32.8659C21.8876 32.8659 22.0227 32.8141 22.1259 32.7109C22.3319 32.505 22.3309 32.1701 22.1249 31.9641C21.919 31.7583 21.5851 31.7583 21.3792 31.9641C21.1732 32.1701 21.1732 32.504 21.3792 32.7099L21.3812 32.7119C21.4838 32.8146 21.6181 32.8659 21.7526 32.8659Z" fill="#007D35"/>
<path d="M8.30073 31.876C8.09134 32.0785 8.08564 32.4123 8.28807 32.6217L8.29004 32.6237C8.39326 32.7305 8.53037 32.784 8.66776 32.784C8.79981 32.784 8.93214 32.7346 9.03479 32.6353C9.24418 32.4329 9.24882 32.098 9.04646 31.8886C8.84396 31.6794 8.51012 31.6736 8.30073 31.876Z" fill="#007D35"/>
<path d="M34.6335 29.2903H30.481V27.0643C31.7367 26.95 32.8827 26.4199 33.6822 25.5689C34.5717 24.6221 34.9909 23.3397 34.8945 21.8587C34.8931 21.8377 34.8922 21.8197 34.8915 21.8041C34.8721 21.4066 34.6423 21.1879 34.2442 21.1879C34.2418 21.1879 34.2393 21.188 34.2369 21.188C34.2221 21.1881 34.2051 21.1881 34.1856 21.188C32.7276 21.1648 31.4051 21.7212 30.481 22.6831V20.2596C31.7368 20.1454 32.8827 19.6152 33.6823 18.7641C34.5717 17.8173 34.9909 16.535 34.8945 15.0539C34.8931 15.033 34.8922 15.0149 34.8915 14.9994C34.8721 14.6019 34.6423 14.3832 34.2442 14.3832C34.2418 14.3832 34.2394 14.3833 34.2369 14.3833C34.2221 14.3834 34.2051 14.3833 34.1857 14.3833C32.7236 14.3594 31.404 14.9161 30.481 15.8779V13.4551C31.7355 13.3418 32.8807 12.8125 33.6805 11.9619C34.5712 11.0146 34.9911 9.7314 34.8945 8.24921C34.8931 8.22826 34.8922 8.21026 34.8915 8.19486C34.8721 7.79816 34.6422 7.57948 34.2442 7.57906C34.2286 7.57899 34.2105 7.57906 34.1895 7.57857C34.1887 7.57857 34.1878 7.57857 34.187 7.57857C32.726 7.55642 31.4047 8.11344 30.481 9.07552V7.62399C31.442 6.66838 31.9322 5.5362 31.8984 4.3449C31.9327 3.13784 31.4299 1.99119 30.4426 1.02671L30.4138 0.998446C30.1165 0.704259 29.7889 0.704329 29.4915 0.998446L29.4616 1.02784C28.4754 1.99126 27.9727 3.13791 28.0069 4.34497C27.9731 5.5367 28.4636 6.66915 29.4263 7.6261V9.07735C28.5188 8.13249 27.228 7.57808 25.7986 7.57808C25.7711 7.57808 25.7433 7.57836 25.7158 7.57871C25.6948 7.5792 25.6767 7.57913 25.6611 7.5792C25.2632 7.57963 25.0334 7.79823 25.0138 8.19486C25.013 8.2104 25.0122 8.2284 25.0106 8.25118C24.9143 9.73154 25.3342 11.0146 26.2247 11.9616C27.0253 12.8132 28.1722 13.3427 29.4263 13.4555V15.8798C28.5202 14.9362 27.2325 14.3827 25.809 14.3827C25.7799 14.3827 25.7504 14.383 25.7212 14.3834C25.7011 14.3836 25.6836 14.3836 25.6684 14.3834C25.2664 14.3803 25.0335 14.5994 25.0138 14.9994C25.013 15.015 25.0122 15.033 25.0106 15.0559C24.9144 16.535 25.3336 17.8172 26.2229 18.7638C27.0232 19.6157 28.1705 20.1461 29.4263 20.2599V22.6846C28.5202 21.7409 27.2324 21.1874 25.8088 21.1874C25.7797 21.1874 25.7503 21.1877 25.7211 21.1881C25.7136 21.1882 25.7064 21.1883 25.6996 21.1883C25.6853 21.1883 25.673 21.188 25.6612 21.188C25.2631 21.188 25.0334 21.4066 25.0138 21.8042C25.013 21.8198 25.0122 21.8378 25.0106 21.8607C24.9144 23.3398 25.3336 24.622 26.223 25.5687C27.0233 26.4205 28.1706 26.9508 29.4263 27.0646V29.2904H18.5264V27.0643C19.7832 26.9502 20.9299 26.4199 21.7297 25.5685C22.619 24.6219 23.0382 23.3397 22.9418 21.8588C22.9404 21.8386 22.9396 21.8212 22.9388 21.806C22.9182 21.4048 22.6861 21.1857 22.2836 21.188C22.2689 21.1881 22.252 21.188 22.2328 21.1881C20.7736 21.1645 19.4506 21.7212 18.5264 22.6833V20.2597C19.7832 20.1455 20.9299 19.6152 21.7298 18.7638C22.6191 17.8172 23.0383 16.535 22.9419 15.0541C22.9405 15.0339 22.9397 15.0165 22.9389 15.0013C22.9184 14.6026 22.6884 14.3833 22.291 14.3833C22.2886 14.3833 22.2861 14.3834 22.2837 14.3834C22.2691 14.3835 22.2524 14.3835 22.2334 14.3835C20.7714 14.3602 19.4501 14.9165 18.5264 15.8785V13.4554C19.782 13.3421 20.928 12.8126 21.7281 11.9617C22.6187 11.0145 23.0385 9.73147 22.942 8.24942C22.9406 8.22938 22.9397 8.21195 22.939 8.19683C22.9184 7.799 22.6884 7.5797 22.2911 7.57927C22.2756 7.5792 22.2578 7.57927 22.237 7.57885C22.2361 7.57878 22.2353 7.57878 22.2344 7.57878C20.7739 7.55509 19.4508 8.11323 18.5264 9.07594V7.6268C19.1524 7.00686 19.5784 6.31231 19.7919 5.56159C19.8716 5.28146 19.7091 4.98974 19.4289 4.91007C19.1488 4.8302 18.8571 4.99297 18.7774 5.27302C18.6391 5.75966 18.3781 6.22147 18.0004 6.64953C17.3897 5.95597 17.0827 5.17135 17.1091 4.36213C17.1094 4.35066 17.1094 4.33927 17.1091 4.32781C17.0827 3.51866 17.3897 2.73404 17.9997 2.04111C18.2952 2.37699 18.5195 2.732 18.6682 3.09981C18.7775 3.36981 19.0849 3.50002 19.3549 3.39083C19.6249 3.28163 19.7552 2.97416 19.646 2.70416C19.4036 2.10502 19.0152 1.54119 18.4901 1.02685L18.4614 0.998657C18.164 0.70447 17.8364 0.70447 17.539 0.998657L17.5096 1.02763C16.5231 1.98936 16.0202 3.13609 16.0546 4.34511C16.0207 5.53789 16.5107 6.66978 17.472 7.62427V9.07609C16.548 8.11407 15.2255 7.55727 13.7635 7.57899C13.7424 7.57948 13.7244 7.57941 13.7088 7.57948C13.3109 7.57991 13.0809 7.79858 13.0615 8.19528C13.0607 8.21082 13.0598 8.22882 13.0583 8.25146C12.9619 9.73189 13.3818 11.0151 14.2725 11.9623C15.0728 12.8135 16.2189 13.3429 17.472 13.4558V15.8785C16.5488 14.9172 15.229 14.3626 13.7688 14.3837C13.7613 14.3838 13.7541 14.3838 13.7473 14.3838C13.733 14.3838 13.7208 14.3836 13.7088 14.3836C13.3108 14.3836 13.0809 14.6022 13.0615 14.9998C13.0607 15.0154 13.0598 15.0335 13.0583 15.0562C12.962 16.5354 13.3812 17.8177 14.2707 18.7645C15.0707 19.6161 16.2172 20.1464 17.472 20.2601V22.6832C16.5483 21.7216 15.2274 21.1667 13.7688 21.1883C13.7613 21.1884 13.7541 21.1885 13.7473 21.1885C13.733 21.1885 13.7206 21.1882 13.7089 21.1883C13.3108 21.1883 13.081 21.4069 13.0615 21.8045C13.0608 21.8201 13.0599 21.8382 13.0584 21.8609C12.9621 23.3401 13.3813 24.6225 14.2708 25.5692C15.0709 26.4208 16.2174 26.9509 17.472 27.0648V29.2906H6.57366V27.0646C7.83077 26.9504 8.9775 26.42 9.77716 25.5683C10.6661 24.6216 11.0845 23.3395 10.9875 21.864C10.9863 21.8438 10.9856 21.8263 10.985 21.811C10.9683 21.4092 10.7388 21.1883 10.3383 21.1883C10.3359 21.1883 10.3334 21.1883 10.3309 21.1883C10.3162 21.1884 10.2994 21.1883 10.2801 21.1884C8.82077 21.1648 7.49784 21.7215 6.57366 22.6836V20.26C7.83084 20.1458 8.97757 19.6153 9.77723 18.7636C10.6661 17.8169 11.0845 16.5348 10.9875 15.0593C10.9863 15.0391 10.9856 15.0216 10.985 15.0063C10.9683 14.6045 10.7388 14.3836 10.3383 14.3836C10.3359 14.3836 10.3334 14.3837 10.3309 14.3837C10.3163 14.3838 10.2996 14.3838 10.2806 14.3838C8.81859 14.3605 7.49728 14.9168 6.57366 15.8787V13.4556C7.82951 13.3423 8.9756 12.8127 9.77548 11.9615C10.6656 11.0142 11.0846 9.73126 10.9875 8.2547C10.9863 8.23452 10.9856 8.21701 10.985 8.20182C10.9683 7.80097 10.7386 7.57991 10.3383 7.57948C10.3229 7.57941 10.305 7.57948 10.2843 7.57906C10.2833 7.57899 10.2825 7.57899 10.2816 7.57899C8.82098 7.5553 7.49798 8.11351 6.57366 9.07616V7.62441C7.53462 6.67048 8.02491 5.53831 7.99102 4.34518C8.0254 3.13623 7.52245 1.98943 6.5352 1.02692L6.50503 0.997251C6.21352 0.708056 5.87911 0.708126 5.58766 0.997251L5.55666 1.02777C4.5701 1.98915 4.06723 3.13588 4.10161 4.3449C4.06772 5.53768 4.55773 6.66957 5.51897 7.62413V9.07602C4.61215 8.13207 3.32135 7.57822 1.89134 7.57822C1.86377 7.57822 1.83607 7.57843 1.80837 7.57885C1.78762 7.57927 1.76977 7.5792 1.7543 7.57927C1.35387 7.5797 1.12423 7.80069 1.10763 8.20168C1.107 8.21687 1.1063 8.23445 1.10531 8.2509C1.008 9.73105 1.42706 11.014 2.31708 11.9613C3.11752 12.8131 4.26445 13.3429 5.5189 13.4556V15.8785C4.61341 14.9357 3.32599 14.3829 1.90181 14.3829C1.87256 14.3829 1.84303 14.3831 1.81371 14.3836C1.79381 14.3838 1.77666 14.3836 1.76161 14.3836C1.35759 14.3833 1.12437 14.6019 1.10763 15.0062C1.107 15.0215 1.1063 15.0391 1.10531 15.0556C1.00807 16.5346 1.4265 17.8167 2.31532 18.7634C3.11541 19.6156 4.26277 20.1462 5.5189 20.2599V22.6835C4.59464 21.7217 3.27213 21.1667 1.81371 21.1881C1.80626 21.1882 1.79916 21.1883 1.79248 21.1883C1.77827 21.1883 1.76604 21.188 1.75437 21.188C1.35387 21.188 1.12423 21.409 1.10763 21.8109C1.107 21.8261 1.1063 21.8437 1.10531 21.8602C1.00807 23.3392 1.4265 24.6213 2.31539 25.568C3.11548 26.4201 4.26284 26.9507 5.5189 27.0645V29.2903H1.36448C0.612141 29.2903 0 29.9033 0 30.6567V33.8578C0 34.6101 0.612141 35.2222 1.36448 35.2222H16.9646C17.2558 35.2222 17.4919 34.9862 17.4919 34.6949C17.4919 34.4036 17.2558 34.1675 16.9646 34.1675H1.36448C1.19658 34.1675 1.05469 34.0256 1.05469 33.8578V30.6567C1.05469 30.4849 1.1937 30.345 1.36448 30.345H34.6335C34.8055 30.345 34.9453 30.4848 34.9453 30.6567V33.8578C34.9453 34.0286 34.8055 34.1675 34.6335 34.1675H19.442C19.1508 34.1675 18.9147 34.4036 18.9147 34.6949C18.9147 34.9862 19.1508 35.2222 19.442 35.2222H34.6335C35.387 35.2222 36 34.6101 36 33.8578V30.6567C36 29.9033 35.387 29.2903 34.6335 29.2903ZM33.8534 22.2485C33.8574 23.2917 33.5354 24.1849 32.9136 24.8468C32.3108 25.4884 31.4442 25.8957 30.4811 26.0036V24.599C31.0316 23.2098 32.2997 22.3315 33.8534 22.2485ZM33.8534 15.4438C33.8573 16.4868 33.5354 17.3802 32.9136 18.042C32.3108 18.6837 31.4442 19.091 30.481 19.1988V17.7943C31.0316 16.405 32.2995 15.5266 33.8534 15.4438ZM33.8534 8.63945C33.8572 9.68338 33.5348 10.5774 32.9122 11.2395C32.3093 11.8806 31.4435 12.2873 30.481 12.3946V10.9916C31.0314 9.60294 32.2994 8.72396 33.8534 8.63945ZM29.0617 4.36206C29.0621 4.35059 29.0621 4.3392 29.0617 4.32774C29.0353 3.51985 29.3425 2.73516 29.9526 2.04111C30.5631 2.73573 30.8701 3.52006 30.8437 4.32774C30.8434 4.3392 30.8434 4.35059 30.8437 4.36206C30.8701 5.16995 30.5629 5.95463 29.9528 6.64869C29.3423 5.95407 29.0353 5.16966 29.0617 4.36206ZM26.9931 11.2392C26.3703 10.5768 26.0479 9.68246 26.052 8.63945C27.6054 8.7241 28.8743 9.60322 29.4263 10.9919V12.395C28.4643 12.2881 27.5967 11.8811 26.9931 11.2392ZM26.9916 18.0416C26.3697 17.3796 26.0478 16.486 26.052 15.4439C27.605 15.5269 28.8741 16.4054 29.4263 17.7946V19.1992C28.4631 19.0915 27.5951 18.6839 26.9916 18.0416ZM26.9917 24.8463C26.3698 24.1843 26.0479 23.2906 26.052 22.2485C27.6052 22.3315 28.8741 23.21 29.4263 24.5993V26.0038C28.4632 25.8962 27.5951 25.4886 26.9917 24.8463ZM18.5264 10.9916C19.0767 9.6028 20.3454 8.72382 21.9007 8.63945C21.9045 9.68323 21.5821 10.5771 20.9597 11.2392C20.3565 11.8806 19.4899 12.2875 18.5264 12.3947V10.9916ZM18.5264 17.7943C19.0769 16.4049 20.3456 15.5266 21.9007 15.4438C21.9046 16.4867 21.5828 17.3799 20.9611 18.0416C20.3581 18.6836 19.4907 19.091 18.5264 19.1989V17.7943H18.5264ZM18.5264 24.599C19.0769 23.2097 20.3457 22.3313 21.9007 22.2485C21.9046 23.2914 21.5827 24.1847 20.9611 24.8463C20.358 25.4883 19.4906 25.8957 18.5264 26.0036V24.599ZM15.0405 11.2395C14.4176 10.577 14.0952 9.68253 14.0993 8.63945C15.6532 8.72396 16.9213 9.60294 17.4717 10.9917V12.3944C16.5103 12.2869 15.6439 11.8812 15.0405 11.2395ZM15.0391 18.042C14.4171 17.3799 14.0951 16.486 14.0993 15.4438C15.653 15.5267 16.9212 16.4051 17.4717 17.7943V19.199C16.5095 19.0915 15.6422 18.684 15.0391 18.042ZM15.0391 24.8468C14.4171 24.1846 14.0952 23.2908 14.0993 22.2485C15.653 22.3315 16.9212 23.2099 17.4717 24.599V26.0036C16.5081 25.8958 15.6424 25.4889 15.0391 24.8468ZM9.9462 22.2486C9.95077 23.2913 9.62951 24.1845 9.00823 24.8461C8.40537 25.4882 7.53806 25.8957 6.57366 26.0036V24.599C7.12392 23.2102 8.39208 22.332 9.9462 22.2486ZM9.9462 15.4439C9.95077 16.4866 9.62951 17.3797 9.0083 18.0414C8.40537 18.6835 7.53869 19.0893 6.57373 19.1981V17.7943C7.12399 16.4055 8.39194 15.5273 9.9462 15.4439ZM9.9462 8.63952C9.95077 9.68316 9.62895 10.5769 9.00689 11.239C8.40396 11.8806 7.53736 12.2875 6.57373 12.3947V10.9917C7.12378 9.60343 8.3918 8.72459 9.9462 8.63952ZM5.15623 4.36206C5.15658 4.35059 5.15658 4.3392 5.15623 4.32774C5.12986 3.5188 5.43656 2.73453 6.04617 2.04174C6.65606 2.73488 6.96263 3.51908 6.93626 4.32774C6.93591 4.3392 6.93591 4.35059 6.93626 4.36206C6.96263 5.17093 6.65592 5.95534 6.04624 6.64813C5.43642 5.95484 5.12986 5.17072 5.15623 4.36206ZM3.08573 11.2389C2.46417 10.5775 2.14235 9.68471 2.14657 8.63959C3.70076 8.72466 4.96884 9.6035 5.5189 10.9917V12.395C4.5566 12.288 3.68909 11.881 3.08573 11.2389ZM3.08433 18.0414C2.46368 17.3803 2.14242 16.4882 2.14664 15.444C3.70055 15.5275 4.9687 16.4057 5.51897 17.7944V19.1992C4.55555 19.0915 3.68747 18.6839 3.08433 18.0414ZM3.08433 24.8461C2.46361 24.185 2.14235 23.2928 2.14657 22.2486C3.70055 22.3322 4.96863 23.2104 5.5189 24.599V26.0038C4.55555 25.8962 3.68754 25.4885 3.08433 24.8461Z" fill="#007D35"/>
</g>
<defs>
<clipPath id="clip0_69_108">
<rect width="36" height="36" fill="white"/>
</clipPath>
</defs>
</svg>
