<svg width="36" height="36" viewBox="0 0 36 36" fill="none" xmlns="http://www.w3.org/2000/svg">
<g clip-path="url(#clip0_69_46)">
<path d="M43.875 6.1875V3.9375C43.875 3.627 43.623 3.375 43.3125 3.375C41.7229 3.375 40.3037 4.113 39.375 5.26275V3.2715C40.0281 3.03862 40.5 2.41988 40.5 1.6875C40.5 0.757125 39.7429 0 38.8125 0C37.8821 0 37.125 0.757125 37.125 1.6875C37.125 2.41988 37.5969 3.03862 38.25 3.2715V5.26275C37.3213 4.113 35.9021 3.375 34.3125 3.375C34.002 3.375 33.75 3.627 33.75 3.9375V6.1875C33.75 8.7885 35.7227 10.9356 38.25 11.2168V14.6869C37.5345 13.9556 36.5389 13.5 35.4375 13.5C35.127 13.5 34.875 13.752 34.875 14.0625V15.1875C34.875 17.1669 36.3448 18.8055 38.25 19.08V21.375H27V19.08C28.9052 18.8055 30.375 17.1669 30.375 15.1875V14.0625C30.375 13.752 30.123 13.5 29.8125 13.5C28.7111 13.5 27.7155 13.9556 27 14.6869V11.2168C29.5273 10.9356 31.5 8.7885 31.5 6.1875V3.9375C31.5 3.627 31.248 3.375 30.9375 3.375C29.3479 3.375 27.9287 4.113 27 5.26275V3.2715C27.6531 3.03862 28.125 2.41988 28.125 1.6875C28.125 0.757125 27.3679 0 26.4375 0C25.5071 0 24.75 0.757125 24.75 1.6875C24.75 2.41988 25.2219 3.03862 25.875 3.2715V5.26275C24.9463 4.113 23.5271 3.375 21.9375 3.375C21.627 3.375 21.375 3.627 21.375 3.9375V6.1875C21.375 8.7885 23.3477 10.9356 25.875 11.2168V14.6869C25.1595 13.9556 24.1639 13.5 23.0625 13.5C22.752 13.5 22.5 13.752 22.5 14.0625V15.1875C22.5 17.1669 23.9698 18.8055 25.875 19.08V21.375H14.625V19.08C16.5302 18.8055 18 17.1669 18 15.1875V14.0625C18 13.752 17.748 13.5 17.4375 13.5C16.3361 13.5 15.3405 13.9556 14.625 14.6869V11.2168C17.1523 10.9356 19.125 8.7885 19.125 6.1875V3.9375C19.125 3.627 18.873 3.375 18.5625 3.375C16.9729 3.375 15.5537 4.113 14.625 5.26275V3.2715C15.2781 3.03862 15.75 2.41988 15.75 1.6875C15.75 0.757125 14.9929 0 14.0625 0C13.1321 0 12.375 0.757125 12.375 1.6875C12.375 2.41988 12.8469 3.03862 13.5 3.2715V5.26275C12.5713 4.113 11.1521 3.375 9.5625 3.375C9.252 3.375 9 3.627 9 3.9375V6.1875C9 8.7885 10.9727 10.9356 13.5 11.2168V14.6869C12.7845 13.9556 11.7889 13.5 10.6875 13.5C10.377 13.5 10.125 13.752 10.125 14.0625V15.1875C10.125 17.1669 11.5948 18.8055 13.5 19.08V21.375H9.5625C9.252 21.375 9 21.627 9 21.9375V34.3125C9 34.623 9.252 34.875 9.5625 34.875H43.3125C43.623 34.875 43.875 34.623 43.875 34.3125V21.9375C43.875 21.627 43.623 21.375 43.3125 21.375H39.375V19.08C41.2802 18.8055 42.75 17.1669 42.75 15.1875V14.0625C42.75 13.752 42.498 13.5 42.1875 13.5C41.0861 13.5 40.0905 13.9556 39.375 14.6869V11.2168C41.9023 10.9356 43.875 8.7885 43.875 6.1875ZM29.25 14.6818V15.1875C29.25 16.5459 28.2819 17.6822 27 17.9432V17.4375C27 16.0791 27.9681 14.9428 29.25 14.6818ZM30.375 4.53994V6.1875C30.375 8.16806 28.9058 9.81113 27 10.0851V8.4375C27 6.45694 28.4692 4.81388 30.375 4.53994ZM26.4375 1.125C26.7474 1.125 27 1.37756 27 1.6875C27 1.99744 26.7474 2.25 26.4375 2.25C26.1276 2.25 25.875 1.99744 25.875 1.6875C25.875 1.37756 26.1276 1.125 26.4375 1.125ZM22.5 6.1875V4.53994C24.4058 4.81388 25.875 6.45694 25.875 8.4375V10.0851C23.9692 9.81113 22.5 8.16806 22.5 6.1875ZM23.625 15.1875V14.6818C24.9069 14.9428 25.875 16.0796 25.875 17.4375V17.9432C24.5931 17.6822 23.625 16.5459 23.625 15.1875ZM16.875 14.6818V15.1875C16.875 16.5459 15.9069 17.6822 14.625 17.9432V17.4375C14.625 16.0791 15.5931 14.9428 16.875 14.6818ZM18 4.53994V6.1875C18 8.16806 16.5308 9.81113 14.625 10.0851V8.4375C14.625 6.45694 16.0942 4.81388 18 4.53994ZM14.0625 1.125C14.3724 1.125 14.625 1.37756 14.625 1.6875C14.625 1.99744 14.3724 2.25 14.0625 2.25C13.7526 2.25 13.5 1.99744 13.5 1.6875C13.5 1.37756 13.7526 1.125 14.0625 1.125ZM10.125 6.1875V4.53994C12.0308 4.81388 13.5 6.45694 13.5 8.4375V10.0851C11.5942 9.81113 10.125 8.16806 10.125 6.1875ZM11.25 15.1875V14.6818C12.5319 14.9428 13.5 16.0791 13.5 17.4375V17.9432C12.2181 17.6822 11.25 16.5459 11.25 15.1875ZM42.75 24.75V31.5H40.5V24.75H42.75ZM39.375 31.5H37.125V24.75H39.375V31.5ZM36 31.5H33.75V24.75H36V31.5ZM32.625 31.5H30.375V24.75H32.625V31.5ZM29.25 31.5H27V24.75H29.25V31.5ZM25.875 31.5H23.625V24.75H25.875V31.5ZM22.5 31.5H20.25V24.75H22.5V31.5ZM19.125 31.5H16.875V24.75H19.125V31.5ZM15.75 31.5H13.5V24.75H15.75V31.5ZM12.375 31.5H10.125V24.75H12.375V31.5ZM10.125 33.75V32.625H42.75V33.75H10.125ZM42.75 23.625H10.125V22.5H42.75V23.625ZM42.75 4.53994V6.1875C42.75 8.16806 41.2808 9.81113 39.375 10.0851V8.4375C39.375 6.45694 40.8442 4.81388 42.75 4.53994ZM38.8125 1.125C39.1224 1.125 39.375 1.37756 39.375 1.6875C39.375 1.99744 39.1224 2.25 38.8125 2.25C38.5026 2.25 38.25 1.99744 38.25 1.6875C38.25 1.37756 38.5026 1.125 38.8125 1.125ZM34.875 6.1875V4.53994C36.7808 4.81388 38.25 6.45694 38.25 8.4375V10.0851C36.3442 9.81113 34.875 8.16806 34.875 6.1875ZM36 15.1875V14.6818C37.2819 14.9428 38.25 16.0796 38.25 17.4375V17.9432C36.9681 17.6822 36 16.5459 36 15.1875ZM41.625 14.6818V15.1875C41.625 16.5459 40.6569 17.6822 39.375 17.9432V17.4375C39.375 16.0791 40.3431 14.9428 41.625 14.6818Z" fill="#007D35"/>
</g>
<defs>
<clipPath id="clip0_69_46">
<rect width="36" height="36" fill="white"/>
</clipPath>
</defs>
</svg>
